# xmcd CD database file
#
# Track frame offsets:
#	150
#	20789
#	36315
#	51794
#	67897
#	88639
#	105705
#	120138
#	130963
#	145384
#	153302
#	173252
#	206478
#	219943
#	241027
#	253926
#	272001
#
# Disc length: 3928 seconds
#
# Revision: 4
# Processed by: cddbd v1.5.2PL0 Copyright (c) Steve Scherf et al.
# Submitted via: CDex 1.51
#
DISCID=e50f5611
DTITLE=Sergey Rachmaninov - Préludes - Moments musicaux  (Nikolaï Lugansky, piano Steinway)
DYEAR=2001
DGENRE=Piano
TTITLE0=Prélude  Op.3  N°2 - c sharp minor
TTITLE1=Prélude  Op.23 - Largo - f sharp minor
TTITLE2=Prélude  Op.23 - Maestoso - B flat major
TTITLE3=Prélude  Op.23 - Tempo di minuetto - d minor
TTITLE4=Prélude  Op.23 - Andante cantabile - D major
TTITLE5=Prélude  Op.23 - Alla marcia - g minor
TTITLE6=Prélude  Op.23 - Andante - E flat major
TTITLE7=Prélude  Op.23 - Allegro - c minor
TTITLE8=Prélude  Op.23 - Allegro vivace - A flat major
TTITLE9=Prélude  Op.23 - Presto - e flat minor
TTITLE10=Prélude  Op.23 - Largo - G flat major
TTITLE11=Moments musicaux  Op.16 - Andantino - b flat minor
TTITLE12=Moments musicaux  Op.16 - Allegretto - e flat minor
TTITLE13=Moments musicaux  Op.16 - Andante cantabile - b minor
TTITLE14=Moments musicaux  Op.16 - Presto - e minor
TTITLE15=Moments musicaux  Op.16 - Adagio sostenuto - D flat major
TTITLE16=Moments musicaux  Op.16 - Maestoso - C major
EXTD=YEAR: 2001
EXTT0=
EXTT1=
EXTT2=
EXTT3=
EXTT4=
EXTT5=
EXTT6=
EXTT7=
EXTT8=
EXTT9=
EXTT10=
EXTT11=
EXTT12=
EXTT13=
EXTT14=
EXTT15=
EXTT16=
PLAYORDER=
